<svg width="24" height="24" viewBox="0 0 24 24" fill="none" xmlns="http://www.w3.org/2000/svg">
<path fill-rule="evenodd" clip-rule="evenodd" d="M17.857 20.417C19.732 20.417 21.25 18.898 21.25 17.024V14.324C20.01 14.324 19.01 13.324 19.01 12.085C19.01 10.845 20.01 9.846 21.25 9.846L21.248 7.143C21.248 5.269 19.73 3.75 17.856 3.75H6.144C4.27 3.75 2.751 5.269 2.751 7.143L2.75 9.933C3.989 9.933 4.989 10.845 4.989 12.085C4.989 13.324 3.989 14.324 2.75 14.324V17.024C2.75 18.898 4.268 20.417 6.142 20.417H17.857Z" stroke="#D1D5DB" stroke-linecap="round" stroke-linejoin="round"/>
<path fill-rule="evenodd" clip-rule="evenodd" d="M11.9993 13.8545L13.7393 14.7695C13.9023 14.8545 14.0933 14.7165 14.0623 14.5355L13.7293 12.5965L15.1383 11.2255C15.2703 11.0965 15.1973 10.8735 15.0153 10.8465L13.0693 10.5635L12.1983 8.79953C12.1173 8.63453 11.8823 8.63453 11.8003 8.79953L10.9293 10.5635L8.98432 10.8465C8.80232 10.8735 8.72932 11.0965 8.86132 11.2255L10.2693 12.5965L9.93632 14.5355C9.90532 14.7165 10.0963 14.8545 10.2593 14.7695L11.9993 13.8545Z" stroke="#D1D5DB" stroke-linecap="round" stroke-linejoin="round"/>
</svg>
