<svg width="4" height="14" viewBox="0 0 4 14" fill="none" xmlns="http://www.w3.org/2000/svg">
<path d="M2.99081 0.636363L2.83385 9.44425H1.16162L1.00466 0.636363H2.99081ZM2.00075 13.1147C1.66671 13.1147 1.38096 12.998 1.14351 12.7646C0.906058 12.5271 0.789344 12.2414 0.793368 11.9073C0.789344 11.5773 0.906058 11.2956 1.14351 11.0621C1.38096 10.8247 1.66671 10.706 2.00075 10.706C2.32675 10.706 2.60847 10.8247 2.84593 11.0621C3.08338 11.2956 3.20412 11.5773 3.20814 11.9073C3.20412 12.1287 3.14576 12.3319 3.03307 12.517C2.92441 12.6982 2.77952 12.843 2.59841 12.9517C2.4173 13.0604 2.21808 13.1147 2.00075 13.1147Z" fill="white"/>
</svg>
