<svg width="18" height="22" viewBox="0 0 18 22" fill="none" xmlns="http://www.w3.org/2000/svg">
<path fill-rule="evenodd" clip-rule="evenodd" d="M0.500825 12.7871V12.5681C0.532951 11.9202 0.740599 11.2925 1.10236 10.7496C1.7045 10.0975 2.1167 9.29831 2.29571 8.43598C2.29571 7.7695 2.29571 7.0935 2.35393 6.42703C2.65469 3.21842 5.82728 1 8.96106 1H9.03867C12.1725 1 15.345 3.21842 15.6555 6.42703C15.7137 7.0935 15.6555 7.7695 15.704 8.43598C15.8854 9.3003 16.2972 10.1019 16.8974 10.7591C17.2618 11.2972 17.4698 11.9227 17.4989 12.5681V12.7776C17.5206 13.648 17.2208 14.4968 16.6548 15.1674C15.907 15.9515 14.8921 16.4393 13.8024 16.5384C10.607 16.8812 7.38303 16.8812 4.18762 16.5384C3.09914 16.435 2.08576 15.9479 1.33521 15.1674C0.778 14.4963 0.482241 13.6526 0.500825 12.7871Z" stroke="white" stroke-linecap="round" stroke-linejoin="round"/>
<path d="M6.55518 19.8516C7.05445 20.4782 7.78764 20.8838 8.59247 20.9785C9.3973 21.0732 10.2074 20.8493 10.8435 20.3562C11.0391 20.2103 11.2152 20.0408 11.3674 19.8516" stroke="white" stroke-linecap="round" stroke-linejoin="round"/>
</svg>
