<svg width="16" height="16" viewBox="0 0 16 16" fill="none" xmlns="http://www.w3.org/2000/svg">
<path opacity="0.4" d="M10.32 2H5.01337C2.71337 2 1.33337 3.37333 1.33337 5.68V10.98C1.33337 13.2933 2.71337 14.6667 5.01337 14.6667H10.3134C12.62 14.6667 13.9934 13.2933 13.9934 10.9867V5.68C14 3.37333 12.62 2 10.32 2Z" fill="#00D1D1"/>
<path d="M14.0134 1.98657C12.82 0.786566 11.6534 0.759899 10.4267 1.98657L9.67336 2.73323C9.60669 2.7999 9.58669 2.89323 9.61336 2.9799C10.08 4.61323 11.3867 5.9199 13.02 6.38657C13.04 6.39323 13.0734 6.39323 13.0934 6.39323C13.16 6.39323 13.2267 6.36657 13.2734 6.3199L14.0134 5.57323C14.62 4.96657 14.92 4.38657 14.92 3.79323C14.92 3.19323 14.62 2.5999 14.0134 1.98657Z" fill="#00D1D1"/>
<path d="M11.9067 6.9466C11.7267 6.85994 11.5534 6.77327 11.3934 6.67327C11.26 6.59327 11.1267 6.5066 11 6.41327C10.8934 6.3466 10.7734 6.2466 10.6534 6.1466C10.64 6.13994 10.6 6.1066 10.5467 6.05327C10.34 5.8866 10.12 5.65994 9.91336 5.41327C9.90003 5.39994 9.86003 5.35994 9.82669 5.29994C9.76003 5.2266 9.66003 5.09994 9.57336 4.95994C9.50003 4.8666 9.41336 4.73327 9.33336 4.59327C9.23336 4.4266 9.14669 4.25994 9.06669 4.0866C8.98003 3.89994 8.91336 3.7266 8.85336 3.55994L5.26669 7.1466C5.03336 7.37994 4.80669 7.81994 4.76003 8.1466L4.47336 10.1333C4.41336 10.5533 4.52669 10.9466 4.78669 11.2066C5.00669 11.4266 5.30669 11.5399 5.64003 11.5399C5.71336 11.5399 5.78669 11.5333 5.86003 11.5266L7.84003 11.2466C8.16669 11.1999 8.60669 10.9799 8.84003 10.7399L12.4267 7.15327C12.26 7.09994 12.0934 7.0266 11.9067 6.9466Z" fill="#00D1D1"/>
</svg>
