<svg width="36" height="36" viewBox="0 0 36 36" fill="none" xmlns="http://www.w3.org/2000/svg">
<circle cx="18.0001" cy="18" r="18" fill="#374151"/>
<path d="M14.0001 14L14.0001 14.01M14.0001 15C13.4478 15 13.0001 14.5523 13.0001 14C13.0001 13.4477 13.4478 13 14.0001 13C14.5524 13 15.0001 13.4477 15.0001 14C15.0001 14.5523 14.5524 15 14.0001 15Z" stroke="white" stroke-width="2" stroke-linecap="round" stroke-linejoin="round"/>
<path d="M14.0001 22L14.0001 22.01M14.0001 23C13.4478 23 13.0001 22.5523 13.0001 22C13.0001 21.4477 13.4478 21 14.0001 21C14.5524 21 15.0001 21.4477 15.0001 22C15.0001 22.5523 14.5524 23 14.0001 23Z" stroke="white" stroke-width="2" stroke-linecap="round" stroke-linejoin="round"/>
<path d="M22.0001 14L22.0001 14.01M22.0001 15C21.4478 15 21.0001 14.5523 21.0001 14C21.0001 13.4477 21.4478 13 22.0001 13C22.5524 13 23.0001 13.4477 23.0001 14C23.0001 14.5523 22.5524 15 22.0001 15Z" stroke="white" stroke-width="2" stroke-linecap="round" stroke-linejoin="round"/>
<path d="M22.0001 22L22.0001 22.01M22.0001 23C21.4478 23 21.0001 22.5523 21.0001 22C21.0001 21.4477 21.4478 21 22.0001 21C22.5524 21 23.0001 21.4477 23.0001 22C23.0001 22.5523 22.5524 23 22.0001 23Z" stroke="white" stroke-width="2" stroke-linecap="round" stroke-linejoin="round"/>
<rect x="25.0001" y="1" width="9" height="9" rx="4.5" fill="#DC2626"/>
</svg>
