<svg width="50" height="42" viewBox="0 0 50 42" fill="none" xmlns="http://www.w3.org/2000/svg">
<g id="Logo Icon">
<path id="Union" d="M23.9875 0C20.1709 0 17.0769 3.07374 17.0769 6.86538V40.3846C17.0769 41.2768 17.8049 42 18.7029 42H19.5159C20.414 42 21.1419 41.2768 21.1419 40.3846V7.26923C21.1419 5.48493 22.5979 4.03846 24.394 4.03846H25.6135C27.4095 4.03846 28.8655 5.48493 28.8655 7.26923V40.3846C28.8655 41.2768 29.5935 42 30.4915 42H31.3045C32.2026 42 32.9306 41.2768 32.9306 40.3846V6.86538C32.9306 3.07374 29.8366 0 26.02 0H23.9875Z" fill="#00D1D1"/>
<rect id="Rectangle 4141" x="23.6923" y="19.5493" width="2.76923" height="4.88727" rx="1.38461" fill="#00D1D1"/>
<rect id="Rectangle 4144" x="8.53662" y="7.875" width="4.06504" height="28.2692" rx="2.03252" fill="#00D1D1"/>
<rect id="Rectangle 4145" x="37.3984" y="7.875" width="4.06504" height="28.2692" rx="2.03252" fill="#00D1D1"/>
<rect id="Rectangle 4146" y="14.9424" width="4.06504" height="14.1346" rx="2.03252" fill="#00D1D1"/>
<rect id="Rectangle 4147" x="45.9349" y="14.9424" width="4.06504" height="14.1346" rx="2.03252" fill="#00D1D1"/>
</g>
</svg>
