<svg width="12" height="40" viewBox="0 0 12 40" fill="none" xmlns="http://www.w3.org/2000/svg">
<path id="Vector" d="M0.898007 0.607406C1.16887 0.819565 1.42522 1.04953 1.66529 1.29573C1.88778 1.53703 2.1339 1.75027 2.37443 1.97746C2.86905 2.44703 3.35463 2.92363 3.81977 3.42279C4.73165 4.39964 5.55856 5.45158 6.29145 6.56711C7.76965 8.80036 8.86835 11.2584 9.54302 13.8416C10.2357 16.5029 10.4438 19.2621 10.1576 21.9881C9.8473 24.8516 9.02332 27.6321 7.72472 30.1979C6.41643 32.7817 4.66472 35.1157 2.54782 37.0957C2.33325 37.2957 2.11498 37.4935 1.89218 37.6862C1.89733 37.5257 1.90372 37.3601 1.91135 37.1895C1.92575 36.6581 1.91918 36.1244 1.89534 35.5905C1.87664 35.0233 1.82795 34.4571 1.74949 33.8945C1.67387 33.3602 1.57357 32.8386 1.456 32.3168C1.38939 32.0331 1.29038 31.7453 1.20332 31.4669C1.19297 31.429 1.17969 31.3919 1.16828 31.3559C1.15505 31.3081 1.1317 31.2637 1.09979 31.2256L1.11095 31.232L1.0889 31.1972L1.08122 31.1805L1.08493 31.1998C1.07293 31.1686 1.0579 31.1385 1.04006 31.1101C1.0354 31.0971 1.02934 31.0845 1.02201 31.0727C1.01086 31.0491 1.01192 31.0473 1.02201 31.0727L0.998384 31.0149C0.965732 30.947 0.929098 30.8817 0.896447 30.8138C0.8578 30.7463 0.810297 30.6842 0.755207 30.6292C0.741761 30.6165 0.7253 30.6075 0.707405 30.6031C0.689511 30.5986 0.670794 30.5987 0.653065 30.6035C0.635336 30.6084 0.619191 30.6176 0.606199 30.6305C0.593206 30.6434 0.583806 30.6594 0.5789 30.677C0.556978 30.745 0.545245 30.816 0.544088 30.8875L0.547253 31.1053C0.545387 31.1729 0.550155 31.2419 0.547226 31.3113L0.542448 31.3625C0.54325 31.3139 0.541119 31.3348 0.531284 31.4248L0.544017 31.5057L0.539512 31.4663L0.545607 31.5287C0.586728 31.8395 0.60263 32.1554 0.646672 32.4654L0.630485 32.3603C0.687437 32.771 0.73377 33.1829 0.769481 33.5961C0.804748 34.0114 0.838152 34.4257 0.86386 34.8404C0.917131 35.6759 0.923415 36.5133 0.882691 37.3487C0.861578 37.783 0.827728 38.2165 0.781124 38.6492L0.766254 38.675C0.744535 38.7527 0.741939 38.8346 0.758704 38.9139C0.775467 38.9932 0.811092 39.0674 0.862578 39.1305C0.91223 39.1972 0.976882 39.2514 1.05129 39.2889C1.1257 39.3263 1.20777 39.3458 1.29085 39.3458C1.39918 39.347 1.50326 39.3384 1.61106 39.332C1.70185 39.3258 1.79201 39.3131 1.88084 39.2939C1.93527 39.2812 1.99157 39.2695 2.04706 39.255L2.67611 39.1054C3.09989 39.0066 3.52023 38.9009 3.94189 38.7887L5.19042 38.4546C5.61023 38.3412 6.02685 38.2162 6.44427 38.0942C6.67635 38.027 6.90046 37.9478 7.12749 37.8679C7.35452 37.788 7.66148 37.6856 7.91454 37.5863L7.80646 37.6319C7.89021 37.6077 7.97181 37.5769 8.05049 37.5397C8.09862 37.513 8.14405 37.4817 8.18617 37.4463C8.24359 37.4103 8.29242 37.3624 8.32931 37.3057C8.37037 37.2322 8.3856 37.1469 8.37261 37.0633C8.36518 36.9976 8.33944 36.9352 8.29829 36.883C8.24806 36.8126 8.17432 36.7622 8.0904 36.7409C8.00629 36.7253 7.92134 36.7147 7.83603 36.7094C7.74596 36.7136 7.65645 36.7251 7.56838 36.7437C7.35861 36.7723 7.15017 36.8114 6.94306 36.8439C6.73595 36.8765 6.51184 36.9041 6.30207 36.9498C5.87483 37.0417 5.45345 37.132 5.02408 37.2276C4.19218 37.4195 3.35814 37.6151 2.53234 37.835C4.70114 36.0651 6.52215 33.9119 7.90513 31.4821C9.38914 28.9064 10.3852 26.0785 10.8444 23.1377C11.2818 20.2978 11.1925 17.3977 10.5809 14.5807C9.9919 11.8855 8.95741 9.30258 7.51972 6.9377C6.80331 5.7528 5.99104 4.62743 5.09109 3.5729C4.64719 3.05412 4.16797 2.54929 3.67415 2.06546C3.18673 1.5626 2.6484 1.11121 2.06789 0.718585C1.78353 0.554411 1.5207 0.331509 1.24537 0.143111C0.970042 -0.0452902 0.643129 0.396465 0.898007 0.607406Z" fill="#00D1D1"/>
</svg>
