<svg width="20" height="20" viewBox="0 0 20 20" fill="none" xmlns="http://www.w3.org/2000/svg">
<path fill-rule="evenodd" clip-rule="evenodd" d="M17.3387 6.35281L16.82 5.45273C16.3812 4.69113 15.4087 4.4284 14.6461 4.86539C14.283 5.07925 13.8499 5.13992 13.4421 5.03404C13.0342 4.92815 12.6853 4.66439 12.4722 4.30094C12.3351 4.06992 12.2614 3.80679 12.2586 3.53816C12.271 3.10748 12.1085 2.69013 11.8082 2.38119C11.5078 2.07224 11.0952 1.89802 10.6644 1.89819H9.61938C9.19727 1.89819 8.79256 2.06639 8.4948 2.36558C8.19704 2.66478 8.03078 3.07029 8.0328 3.4924C8.02029 4.3639 7.3102 5.06381 6.4386 5.06372C6.16997 5.06093 5.90684 4.98725 5.67583 4.85014C4.91318 4.41314 3.94072 4.67588 3.50191 5.43748L2.94509 6.35281C2.5068 7.11346 2.76596 8.0853 3.5248 8.52672C4.01805 8.8115 4.32191 9.33779 4.32191 9.90735C4.32191 10.4769 4.01805 11.0032 3.5248 11.288C2.76693 11.7264 2.50749 12.6959 2.94509 13.4543L3.4714 14.362C3.677 14.7329 4.02197 15.0067 4.42996 15.1227C4.83795 15.2386 5.27533 15.1872 5.64531 14.9798C6.00903 14.7676 6.44245 14.7094 6.84925 14.8183C7.25604 14.9272 7.60249 15.194 7.8116 15.5595C7.94871 15.7905 8.02239 16.0537 8.02518 16.3223C8.02518 17.2028 8.73893 17.9165 9.61938 17.9165H10.6644C11.5419 17.9165 12.2544 17.2074 12.2586 16.3299C12.2565 15.9065 12.4239 15.4998 12.7233 15.2004C13.0227 14.901 13.4294 14.7337 13.8528 14.7357C14.1208 14.7429 14.3828 14.8163 14.6156 14.9493C15.3762 15.3876 16.3481 15.1284 16.7895 14.3696L17.3387 13.4543C17.5513 13.0894 17.6096 12.6548 17.5008 12.2468C17.392 11.8387 17.125 11.4909 16.759 11.2803C16.3929 11.0698 16.1259 10.7219 16.0171 10.3139C15.9083 9.90588 15.9667 9.47131 16.1793 9.10643C16.3175 8.86508 16.5176 8.66496 16.759 8.52672C17.5133 8.08554 17.7718 7.11937 17.3387 6.36044V6.35281Z" stroke="white" stroke-linecap="round" stroke-linejoin="round"/>
<ellipse cx="10.1456" cy="9.90716" rx="2.1968" ry="2.1968" stroke="white" stroke-linecap="round" stroke-linejoin="round"/>
</svg>
