<svg width="36" height="36" viewBox="0 0 36 36" fill="none" xmlns="http://www.w3.org/2000/svg">
<circle cx="18" cy="18" r="18" fill="#374151"/>
<path fill-rule="evenodd" clip-rule="evenodd" d="M13.6949 19.3909C13.0502 19.3909 12.5264 18.8671 12.5264 18.2223C12.5264 17.5795 13.0502 17.0557 13.6949 17.0557C14.3397 17.0557 14.8635 17.5795 14.8635 18.2223C14.8635 18.8671 14.3397 19.3909 13.6949 19.3909ZM18.2379 19.3909C17.5931 19.3909 17.0693 18.8671 17.0693 18.2223C17.0693 17.5795 17.5931 17.0557 18.2379 17.0557C18.8827 17.0557 19.4065 17.5795 19.4065 18.2223C19.4065 18.8671 18.8827 19.3909 18.2379 19.3909ZM21.6123 18.2223C21.6123 18.8671 22.1361 19.3909 22.7809 19.3909C23.4256 19.3909 23.9494 18.8671 23.9494 18.2223C23.9494 17.5795 23.4256 17.0557 22.7809 17.0557C22.1361 17.0557 21.6123 17.5795 21.6123 18.2223Z" fill="#E5E7EB"/>
<path fill-rule="evenodd" clip-rule="evenodd" d="M18.02 8C12.21 8 8 12.7461 8 18.015C8 19.6975 8.49 21.4291 9.35 23.0115C9.51 23.2729 9.53 23.6024 9.42 23.9139L8.75 26.1572C8.6 26.698 9.06 27.0976 9.57 26.9374L11.59 26.3375C12.14 26.1572 12.57 26.3866 13.08 26.698C14.54 27.5583 16.36 28 18 28C22.96 28 28 24.1642 28 17.985C28 12.656 23.7 8 18.02 8Z" stroke="#E5E7EB" stroke-linecap="round" stroke-linejoin="round"/>
</svg>
