<svg width="36" height="36" viewBox="0 0 36 36" fill="none" xmlns="http://www.w3.org/2000/svg">
<circle cx="18" cy="18" r="18" fill="#374151"/>
<path fill-rule="evenodd" clip-rule="evenodd" d="M13.4222 25.8203C13.8442 25.8203 14.1872 26.1633 14.1872 26.5853C14.1872 27.0073 13.8442 27.3493 13.4222 27.3493C13.0002 27.3493 12.6582 27.0073 12.6582 26.5853C12.6582 26.1633 13.0002 25.8203 13.4222 25.8203Z" stroke="white" stroke-linecap="round" stroke-linejoin="round"/>
<path fill-rule="evenodd" clip-rule="evenodd" d="M24.6752 25.8203C25.0972 25.8203 25.4402 26.1633 25.4402 26.5853C25.4402 27.0073 25.0972 27.3493 24.6752 27.3493C24.2532 27.3493 23.9102 27.0073 23.9102 26.5853C23.9102 26.1633 24.2532 25.8203 24.6752 25.8203Z" stroke="white" stroke-linecap="round" stroke-linejoin="round"/>
<path d="M8.75 9.25L10.83 9.61L11.793 21.083C11.871 22.018 12.652 22.736 13.59 22.736H24.502C25.398 22.736 26.158 22.078 26.287 21.19L27.236 14.632C27.353 13.823 26.726 13.099 25.909 13.099H11.164" stroke="white" stroke-linecap="round" stroke-linejoin="round"/>
<path d="M20.1255 16.7949H22.8985" stroke="white" stroke-linecap="round" stroke-linejoin="round"/>
</svg>
