<svg width="20" height="20" viewBox="0 0 20 20" fill="none" xmlns="http://www.w3.org/2000/svg">
<g id="2 User">
<path id="Stroke 1" d="M14.02 8.91382C15.841 8.91382 17.317 7.43782 17.317 5.61682C17.317 3.79682 15.841 2.31982 14.02 2.31982" stroke="#9CA3AF" stroke-linecap="round" stroke-linejoin="round"/>
<path id="Stroke 3" d="M15.5361 12.4966C16.0801 12.5336 16.6201 12.6116 17.1531 12.7296C17.8921 12.8766 18.7821 13.1796 19.0981 13.8426C19.3001 14.2676 19.3001 14.7626 19.0981 15.1876C18.7831 15.8506 17.8921 16.1536 17.1531 16.3056" stroke="#9CA3AF" stroke-linecap="round" stroke-linejoin="round"/>
<path id="Stroke 5" fill-rule="evenodd" clip-rule="evenodd" d="M7.59149 13.2065C11.2815 13.2065 14.4335 13.7655 14.4335 15.9985C14.4335 18.2325 11.3015 18.8105 7.59149 18.8105C3.90149 18.8105 0.750488 18.2525 0.750488 16.0185C0.750488 13.7845 3.88149 13.2065 7.59149 13.2065Z" stroke="#9CA3AF" stroke-linecap="round" stroke-linejoin="round"/>
<path id="Stroke 7" fill-rule="evenodd" clip-rule="evenodd" d="M7.59152 10.019C5.15752 10.019 3.20752 8.068 3.20752 5.634C3.20752 3.201 5.15752 1.25 7.59152 1.25C10.0255 1.25 11.9765 3.201 11.9765 5.634C11.9765 8.068 10.0255 10.019 7.59152 10.019Z" stroke="#9CA3AF" stroke-linecap="round" stroke-linejoin="round"/>
</g>
</svg>
