<svg width="10" height="14" viewBox="0 0 10 14" fill="none" xmlns="http://www.w3.org/2000/svg">
<path d="M9.44444 12.8333H8.88889V10.9241C8.88889 9.97442 8.50389 9.06558 7.83167 8.43092L6.89111 7.5425C6.74278 7.40192 6.66111 7.20942 6.66111 7C6.66111 6.79058 6.74278 6.59808 6.89111 6.45808L7.83167 5.56967C8.50389 4.93383 8.88889 4.02558 8.88889 3.07592V1.16667H9.44444C9.75167 1.16667 10 0.905333 10 0.583333C10 0.261333 9.75167 0 9.44444 0H0.555556C0.248333 0 0 0.261333 0 0.583333C0 0.905333 0.248333 1.16667 0.555556 1.16667H1.11111V3.07592C1.11111 4.02558 1.49611 4.93442 2.16833 5.56908L3.10889 6.4575C3.25722 6.59808 3.33889 6.79058 3.33889 7C3.33889 7.20942 3.25722 7.40192 3.10889 7.54192L2.16833 8.43033C1.49611 9.06617 1.11111 9.97442 1.11111 10.9241V12.8333H0.555556C0.248333 12.8333 0 13.0947 0 13.4167C0 13.7387 0.248333 14 0.555556 14H9.44444C9.75167 14 10 13.7387 10 13.4167C10 13.0947 9.75167 12.8333 9.44444 12.8333ZM2.77778 10.9836C2.77778 10.5548 2.93667 10.1523 3.22556 9.849L4.70556 8.295C4.86833 8.12408 5.13222 8.12408 5.295 8.295L6.775 9.849C7.06389 10.1523 7.22278 10.5548 7.22278 10.9836V12.8333H2.77778V10.9836Z" fill="white"/>
</svg>
